<svg width="111" height="111" viewBox="0 0 111 111" fill="none" xmlns="http://www.w3.org/2000/svg">
<circle cx="55.5" cy="55.5" r="52.5" stroke="#800000" stroke-width="6"/>
<g clip-path="url(#clip0_600_59)">
<path d="M78.5439 53.2407C78.7774 53.2407 79.0014 53.1479 79.1666 52.9828C79.3317 52.8176 79.4245 52.5936 79.4245 52.3601V26.8806C79.4245 26.6471 79.3317 26.4231 79.1666 26.2579C79.0014 26.0928 78.7774 26 78.5439 26H33.4558C33.2223 26 32.9983 26.0928 32.8331 26.2579C32.668 26.4231 32.5752 26.6471 32.5752 26.8806V85.1194C32.5752 85.3529 32.668 85.5769 32.8331 85.7421C32.9983 85.9072 33.2223 86 33.4558 86H71.0292C71.2626 85.9989 71.4862 85.9063 71.652 85.742L79.1667 78.2274C79.3309 78.0616 79.4235 77.838 79.4245 77.6047V56.4646C79.4245 55.9783 79.0303 55.584 78.5439 55.584C78.0574 55.584 77.6633 55.9783 77.6633 56.4646V76.7241H71.0292C70.7957 76.7241 70.5717 76.8168 70.4065 76.982C70.2414 77.1471 70.1486 77.3711 70.1486 77.6047V84.2387H34.3364V27.7613H77.6633V52.3601C77.6633 52.5936 77.756 52.8176 77.9212 52.9828C78.0863 53.1479 78.3103 53.2407 78.5439 53.2407ZM71.9098 78.4853H76.4179L71.9098 82.9934V78.4853Z" fill="#800000"/>
<path d="M55.0023 50.3641V31.5774C55.0023 31.3438 54.9095 31.1199 54.7444 30.9547C54.5792 30.7896 54.3552 30.6968 54.1217 30.6968H37.2136C36.9801 30.6968 36.7561 30.7896 36.5909 30.9547C36.4258 31.1199 36.333 31.3438 36.333 31.5774V50.3641C36.333 50.5977 36.4258 50.8216 36.5909 50.9868C36.7561 51.1519 36.9801 51.2447 37.2136 51.2447H54.1217C54.3552 51.2447 54.5792 51.1519 54.7444 50.9868C54.9095 50.8216 55.0023 50.5977 55.0023 50.3641ZM41.8516 49.4835V44.7281C41.8516 44.1778 42.2993 43.73 42.8496 43.73H48.4857C49.036 43.73 49.4837 44.1778 49.4837 44.7281V49.4835H41.8516ZM53.241 49.4835H51.2449V44.7281C51.2449 43.2066 50.0071 41.9688 48.4857 41.9688H42.8496C41.3282 41.9688 40.0903 43.2066 40.0903 44.7281V49.4835H38.0943V32.458H53.241V49.4835Z" fill="#800000"/>
<path d="M45.6668 41.8514C47.7062 41.8514 49.3654 40.1921 49.3654 38.1527C49.3654 36.1133 47.7062 34.4541 45.6668 34.4541C43.6274 34.4541 41.9682 36.1133 41.9682 38.1527C41.9682 40.1921 43.6274 41.8514 45.6668 41.8514ZM45.6668 36.2154C46.735 36.2154 47.6042 37.0845 47.6042 38.1527C47.6042 39.221 46.735 40.0901 45.6668 40.0901C44.5985 40.0901 43.7294 39.221 43.7294 38.1527C43.7294 37.0845 44.5985 36.2154 45.6668 36.2154ZM59.7568 36.2154H65.3928C65.8793 36.2154 66.2734 35.8211 66.2734 35.3347C66.2734 34.8484 65.8793 34.4541 65.3928 34.4541H59.7568C59.2703 34.4541 58.8762 34.8484 58.8762 35.3347C58.8762 35.8211 59.2703 36.2154 59.7568 36.2154ZM74.7862 34.4541H69.1502C68.6637 34.4541 68.2695 34.8484 68.2695 35.3347C68.2695 35.8211 68.6637 36.2154 69.1502 36.2154H74.7862C75.2726 36.2154 75.6668 35.8211 75.6668 35.3347C75.6668 34.8484 75.2726 34.4541 74.7862 34.4541ZM59.7568 39.9727H71.9682C72.4546 39.9727 72.8488 39.5784 72.8488 39.0921C72.8488 38.6057 72.4546 38.2114 71.9682 38.2114H59.7568C59.2703 38.2114 58.8762 38.6057 58.8762 39.0921C58.8762 39.5784 59.2703 39.9727 59.7568 39.9727ZM59.7568 43.73H65.3928C65.8793 43.73 66.2734 43.3357 66.2734 42.8494C66.2734 42.3631 65.8793 41.9688 65.3928 41.9688H59.7568C59.2703 41.9688 58.8762 42.3631 58.8762 42.8494C58.8762 43.3357 59.2703 43.73 59.7568 43.73ZM59.7568 47.4874H72.9075C73.3939 47.4874 73.7881 47.0931 73.7881 46.6067C73.7881 46.1204 73.3939 45.7261 72.9075 45.7261H59.7568C59.2703 45.7261 58.8762 46.1204 58.8762 46.6067C58.8762 47.0931 59.2703 47.4874 59.7568 47.4874ZM75.5738 64.0603C75.5007 63.914 75.3882 63.791 75.2491 63.705C75.11 63.619 74.9497 63.5735 74.7862 63.5735H67.2316C65.4053 59.1668 61.0588 56.0588 55.9995 56.0588C54.2406 56.0588 52.5432 56.4267 50.955 57.1522C50.7426 57.2492 50.5774 57.4267 50.4958 57.6455C50.4142 57.8643 50.4228 58.1066 50.5199 58.3191C50.7221 58.7615 51.2447 58.9565 51.6867 58.7542C53.0437 58.1344 54.4948 57.8201 55.9995 57.8201C61.7293 57.8201 66.3909 62.4816 66.3909 68.2114C66.3909 73.9413 61.7293 78.6028 55.9995 78.6028C50.2696 78.6028 45.6081 73.9413 45.6081 68.2114C45.6063 65.655 46.5486 63.1879 48.2542 61.2836C48.3313 61.1975 48.3907 61.0969 48.429 60.9878C48.4673 60.8787 48.4837 60.7631 48.4773 60.6476C48.471 60.5322 48.4419 60.4191 48.3918 60.3149C48.3417 60.2106 48.2716 60.1173 48.1854 60.0402C48.0992 59.963 47.9987 59.9036 47.8896 59.8653C47.7805 59.827 47.6649 59.8106 47.5494 59.817C47.4339 59.8234 47.3208 59.8524 47.2166 59.9025C47.1124 59.9526 47.019 60.0228 46.9419 60.109C46.0266 61.1325 45.2915 62.304 44.7682 63.5735H37.2128C37.0492 63.5734 36.8889 63.6189 36.7497 63.7049C36.6106 63.7909 36.4981 63.9139 36.425 64.0602C36.3518 64.2065 36.3209 64.3703 36.3356 64.5332C36.3503 64.6961 36.4101 64.8517 36.5083 64.9825L38.93 68.2114L36.5083 71.4404C36.4101 71.5712 36.3504 71.7268 36.3357 71.8897C36.321 72.0526 36.352 72.2163 36.4251 72.3626C36.4983 72.5089 36.6107 72.6319 36.7498 72.7179C36.8889 72.8039 37.0492 72.8494 37.2128 72.8494H44.7674C46.5937 77.2561 50.9401 80.3641 55.9995 80.3641C61.0588 80.3641 65.4051 77.2561 67.2316 72.8494H74.7862C74.9497 72.8494 75.1101 72.8039 75.2492 72.718C75.3884 72.632 75.5008 72.509 75.5739 72.3627C75.6471 72.2164 75.678 72.0526 75.6633 71.8897C75.6486 71.7268 75.5888 71.5712 75.4907 71.4404L73.0689 68.2114L75.4907 64.9825C75.5888 64.8516 75.6485 64.6961 75.6632 64.5332C75.6779 64.3703 75.6469 64.2066 75.5738 64.0603ZM38.974 71.0882L40.7353 68.7398C40.8496 68.5874 40.9114 68.402 40.9114 68.2114C40.9114 68.0209 40.8496 67.8355 40.7353 67.6831L38.974 65.3347H44.1933C43.7318 67.2247 43.7313 69.1979 44.1917 71.0882H38.974ZM71.2637 68.7398L73.0249 71.0882H67.8073C68.0321 70.1655 68.1521 69.2023 68.1521 68.2114C68.1521 67.2206 68.032 66.2574 67.8073 65.3347H73.0249L71.2637 67.6831C71.1493 67.8355 71.0875 68.0209 71.0875 68.2114C71.0875 68.402 71.1493 68.5874 71.2637 68.7398Z" fill="#800000"/>
<path d="M55.9998 76.6068C60.629 76.6068 64.3951 72.8406 64.3951 68.2115C64.3951 63.5823 60.629 59.8162 55.9998 59.8162C51.3706 59.8162 47.6045 63.5823 47.6045 68.2115C47.6045 72.8406 51.3706 76.6068 55.9998 76.6068ZM55.9998 61.5774C59.6578 61.5774 62.6338 64.5535 62.6338 68.2115C62.6338 71.8695 59.6578 74.8455 55.9998 74.8455C52.3418 74.8455 49.3657 71.8695 49.3657 68.2115C49.3657 64.5535 52.3418 61.5774 55.9998 61.5774Z" fill="#800000"/>
<path d="M52.873 72.7931C53.0917 72.875 53.334 72.8668 53.5466 72.7702C53.7592 72.6735 53.9247 72.4964 54.0068 72.2778L54.4971 70.9705H57.5036L57.9938 72.2778C58.0759 72.4964 58.2414 72.6736 58.454 72.7702C58.6666 72.8669 58.9089 72.8752 59.1276 72.7932C59.2359 72.7526 59.3351 72.6911 59.4196 72.6121C59.5041 72.5332 59.5722 72.4383 59.6201 72.3331C59.6679 72.2278 59.6946 72.1141 59.6985 71.9985C59.7024 71.8829 59.6835 71.7677 59.6429 71.6594L56.8249 64.1448C56.762 63.9769 56.6493 63.8323 56.502 63.7303C56.3546 63.6282 56.1797 63.5735 56.0004 63.5735C55.8212 63.5735 55.6462 63.6282 55.4989 63.7303C55.3516 63.8323 55.2389 63.9769 55.1759 64.1448L52.3579 71.6594C52.3173 71.7677 52.2984 71.8829 52.3023 71.9985C52.3061 72.114 52.3328 72.2277 52.3806 72.333C52.4284 72.4383 52.4966 72.5331 52.581 72.612C52.6655 72.691 52.7648 72.7525 52.873 72.7931ZM56.0003 66.9619L56.843 69.2093H55.1575L56.0003 66.9619Z" fill="#800000"/>
</g>
<defs>
<clipPath id="clip0_600_59">
<rect width="60" height="60" fill="white" transform="translate(26 26)"/>
</clipPath>
</defs>
</svg>
