<svg width="25" height="25" viewBox="0 0 25 25" fill="none" xmlns="http://www.w3.org/2000/svg">
<path d="M11.5384 22.1558C11.4721 22.1558 11.4065 22.1421 11.3458 22.1155C11.285 22.0889 11.2304 22.05 11.1854 22.0013L1.66679 11.7049C1.60334 11.6363 1.56127 11.5506 1.54574 11.4584C1.53021 11.3663 1.54189 11.2716 1.57935 11.1859C1.61682 11.1003 1.67843 11.0274 1.75666 10.9762C1.83489 10.9251 1.92634 10.8978 2.01982 10.8978H6.60155C6.67034 10.8978 6.73833 10.9126 6.80093 10.9411C6.86353 10.9696 6.91929 11.0112 6.96444 11.0631L10.1456 14.723C10.4894 13.988 11.1549 12.7644 12.3228 11.2733C14.0493 9.06901 17.2608 5.82713 22.7552 2.9006C22.8614 2.84404 22.9849 2.82937 23.1014 2.85946C23.2179 2.88956 23.3189 2.96224 23.3844 3.06315C23.4499 3.16406 23.4752 3.28588 23.4553 3.40453C23.4354 3.52319 23.3717 3.63007 23.2768 3.70406C23.2559 3.72045 21.1374 5.38872 18.6993 8.44444C16.4555 11.2565 13.4727 15.8545 12.005 21.7906C11.9792 21.8949 11.9192 21.9875 11.8346 22.0538C11.75 22.12 11.6457 22.156 11.5383 22.156L11.5384 22.1558Z" fill="#FF9933"/>
</svg>
