<svg width="172" height="28" viewBox="0 0 172 28" fill="none" xmlns="http://www.w3.org/2000/svg">
<path d="M19.76 8.74616C19.1615 7.64894 18.3386 6.81355 17.2912 6.24C16.2439 5.66645 15.022 5.37967 13.6255 5.37967C12.0794 5.37967 10.7079 5.72879 9.51092 6.42703C8.31395 7.12526 7.37881 8.12274 6.70551 9.41946C6.03222 10.7162 5.69557 12.2124 5.69557 13.9081C5.69557 15.6537 6.03222 17.1748 6.70551 18.4716C7.40375 19.7683 8.36382 20.7658 9.58573 21.464C10.8076 22.1622 12.229 22.5114 13.8499 22.5114C15.8449 22.5114 17.4783 21.9877 18.7501 20.9403C20.0218 19.868 20.8572 18.3843 21.2562 16.4891H12.2789V12.4867H26.4182V17.0502C26.069 18.8706 25.3209 20.5538 24.1738 22.0999C23.0267 23.646 21.543 24.8928 19.7226 25.8404C17.9271 26.7631 15.9072 27.2244 13.6629 27.2244C11.1443 27.2244 8.86256 26.6634 6.81773 25.5412C4.79784 24.3941 3.20187 22.8106 2.02984 20.7907C0.882739 18.7708 0.309189 16.4766 0.309189 13.9081C0.309189 11.3396 0.882739 9.0454 2.02984 7.02551C3.20187 4.98068 4.79784 3.39719 6.81773 2.27503C8.86256 1.12793 11.1318 0.554377 13.6255 0.554377C16.5681 0.554377 19.1241 1.27755 21.2936 2.72389C23.4631 4.1453 24.9594 6.15272 25.7823 8.74616H19.76ZM35.4545 0.891025V17.0502C35.4545 18.8207 35.9158 20.1797 36.8385 21.1274C37.7612 22.05 39.0579 22.5114 40.7287 22.5114C42.4244 22.5114 43.7336 22.05 44.6562 21.1274C45.5789 20.1797 46.0402 18.8207 46.0402 17.0502V0.891025H51.3144V17.0128C51.3144 19.2321 50.8281 21.1149 49.8556 22.661C48.908 24.1821 47.6237 25.3292 46.0028 26.1023C44.4069 26.8753 42.6239 27.2618 40.6538 27.2618C38.7088 27.2618 36.9382 26.8753 35.3423 26.1023C33.7712 25.3292 32.5244 24.1821 31.6017 22.661C30.6791 21.1149 30.2177 19.2321 30.2177 17.0128V0.891025H35.4545ZM69.84 27L64.0796 16.8257H61.6108V27H56.374V0.891025H66.1743C68.1942 0.891025 69.9148 1.25261 71.3362 1.97578C72.7576 2.67402 73.8174 3.63409 74.5157 4.856C75.2388 6.05297 75.6004 7.39957 75.6004 8.89578C75.6004 10.6164 75.1017 12.175 74.1042 13.5715C73.1067 14.943 71.623 15.8906 69.653 16.4143L75.8997 27H69.84ZM61.6108 12.8982H65.9872C67.4086 12.8982 68.4685 12.5615 69.1667 11.8882C69.8649 11.19 70.214 10.2299 70.214 9.008C70.214 7.81102 69.8649 6.88836 69.1667 6.24C68.4685 5.5667 67.4086 5.23005 65.9872 5.23005H61.6108V12.8982ZM85.4988 0.891025V17.0502C85.4988 18.8207 85.9602 20.1797 86.8828 21.1274C87.8055 22.05 89.1022 22.5114 90.773 22.5114C92.4687 22.5114 93.7779 22.05 94.7006 21.1274C95.6232 20.1797 96.0846 18.8207 96.0846 17.0502V0.891025H101.359V17.0128C101.359 19.2321 100.872 21.1149 99.8999 22.661C98.9523 24.1821 97.6681 25.3292 96.0472 26.1023C94.4512 26.8753 92.6682 27.2618 90.6982 27.2618C88.7531 27.2618 86.9826 26.8753 85.3866 26.1023C83.8156 25.3292 82.5687 24.1821 81.6461 22.661C80.7234 21.1149 80.2621 19.2321 80.2621 17.0128V0.891025H85.4988Z" fill="white"/>
<path d="M121.156 27L111.655 15.3669V27H106.418V0.891025H111.655V12.5989L121.156 0.891025H127.478L116.705 13.8333L127.777 27H121.156ZM136.383 0.891025V17.0502C136.383 18.8207 136.845 20.1797 137.767 21.1274C138.69 22.05 139.987 22.5114 141.658 22.5114C143.353 22.5114 144.662 22.05 145.585 21.1274C146.508 20.1797 146.969 18.8207 146.969 17.0502V0.891025H152.243V17.0128C152.243 19.2321 151.757 21.1149 150.784 22.661C149.837 24.1821 148.553 25.3292 146.932 26.1023C145.336 26.8753 143.553 27.2618 141.583 27.2618C139.638 27.2618 137.867 26.8753 136.271 26.1023C134.7 25.3292 133.453 24.1821 132.531 22.661C131.608 21.1149 131.147 19.2321 131.147 17.0128V0.891025H136.383ZM162.54 22.848H171.143V27H157.303V0.891025H162.54V22.848Z" fill="#FF9933"/>
</svg>
