<svg width="147" height="24" viewBox="0 0 147 24" fill="none" xmlns="http://www.w3.org/2000/svg">
<path d="M16.76 7.384C16.248 6.44533 15.544 5.73067 14.648 5.24C13.752 4.74933 12.7067 4.504 11.512 4.504C10.1893 4.504 9.016 4.80267 7.992 5.4C6.968 5.99733 6.168 6.85067 5.592 7.96C5.016 9.06933 4.728 10.3493 4.728 11.8C4.728 13.2933 5.016 14.5947 5.592 15.704C6.18933 16.8133 7.01067 17.6667 8.056 18.264C9.10133 18.8613 10.3173 19.16 11.704 19.16C13.4107 19.16 14.808 18.712 15.896 17.816C16.984 16.8987 17.6987 15.6293 18.04 14.008H10.36V10.584H22.456V14.488C22.1573 16.0453 21.5173 17.4853 20.536 18.808C19.5547 20.1307 18.2853 21.1973 16.728 22.008C15.192 22.7973 13.464 23.192 11.544 23.192C9.38933 23.192 7.43733 22.712 5.688 21.752C3.96 20.7707 2.59467 19.416 1.592 17.688C0.610667 15.96 0.12 13.9973 0.12 11.8C0.12 9.60267 0.610667 7.64 1.592 5.912C2.59467 4.16267 3.96 2.808 5.688 1.848C7.43733 0.866666 9.37867 0.375999 11.512 0.375999C14.0293 0.375999 16.216 0.994666 18.072 2.232C19.928 3.448 21.208 5.16533 21.912 7.384H16.76ZM30.1865 0.664V14.488C30.1865 16.0027 30.5812 17.1653 31.3705 17.976C32.1598 18.7653 33.2692 19.16 34.6985 19.16C36.1492 19.16 37.2692 18.7653 38.0585 17.976C38.8478 17.1653 39.2425 16.0027 39.2425 14.488V0.664H43.7545V14.456C43.7545 16.3547 43.3385 17.9653 42.5065 19.288C41.6958 20.5893 40.5972 21.5707 39.2105 22.232C37.8452 22.8933 36.3198 23.224 34.6345 23.224C32.9705 23.224 31.4558 22.8933 30.0905 22.232C28.7465 21.5707 27.6798 20.5893 26.8905 19.288C26.1012 17.9653 25.7065 16.3547 25.7065 14.456V0.664H30.1865ZM59.603 23L54.675 14.296H52.563V23H48.083V0.664H56.467C58.195 0.664 59.667 0.973333 60.883 1.592C62.099 2.18933 63.0057 3.01067 63.603 4.056C64.2217 5.08 64.531 6.232 64.531 7.512C64.531 8.984 64.1043 10.3173 63.251 11.512C62.3977 12.6853 61.1283 13.496 59.443 13.944L64.787 23H59.603ZM52.563 10.936H56.307C57.523 10.936 58.4297 10.648 59.027 10.072C59.6243 9.47467 59.923 8.65333 59.923 7.608C59.923 6.584 59.6243 5.79467 59.027 5.24C58.4297 4.664 57.523 4.376 56.307 4.376H52.563V10.936ZM72.999 0.664V14.488C72.999 16.0027 73.3937 17.1653 74.183 17.976C74.9723 18.7653 76.0817 19.16 77.511 19.16C78.9617 19.16 80.0817 18.7653 80.871 17.976C81.6603 17.1653 82.055 16.0027 82.055 14.488V0.664H86.567V14.456C86.567 16.3547 86.151 17.9653 85.319 19.288C84.5083 20.5893 83.4097 21.5707 82.023 22.232C80.6577 22.8933 79.1323 23.224 77.447 23.224C75.783 23.224 74.2683 22.8933 72.903 22.232C71.559 21.5707 70.4923 20.5893 69.703 19.288C68.9137 17.9653 68.519 16.3547 68.519 14.456V0.664H72.999Z" fill="#800000"/>
<path d="M103.504 23L95.3755 13.048V23H90.8955V0.664H95.3755V10.68L103.504 0.664H108.912L99.6955 11.736L109.168 23H103.504ZM116.53 0.664V14.488C116.53 16.0027 116.925 17.1653 117.714 17.976C118.504 18.7653 119.613 19.16 121.042 19.16C122.493 19.16 123.613 18.7653 124.402 17.976C125.192 17.1653 125.586 16.0027 125.586 14.488V0.664H130.098V14.456C130.098 16.3547 129.682 17.9653 128.85 19.288C128.04 20.5893 126.941 21.5707 125.554 22.232C124.189 22.8933 122.664 23.224 120.978 23.224C119.314 23.224 117.8 22.8933 116.434 22.232C115.09 21.5707 114.024 20.5893 113.234 19.288C112.445 17.9653 112.05 16.3547 112.05 14.456V0.664H116.53ZM138.907 19.448H146.267V23H134.427V0.664H138.907V19.448Z" fill="#FF9933"/>
</svg>
